<?xml version="1.0" encoding="UTF-8"?><svg id="Layer_1" xmlns="http://www.w3.org/2000/svg" xmlns:xlink="http://www.w3.org/1999/xlink" viewBox="0 0 1965.12 617.77"><defs><linearGradient id="linear-gradient" x1="254.75" y1="233.04" x2="254.75" y2="369.9" gradientUnits="userSpaceOnUse"><stop offset="0" stop-color="#fff"/><stop offset="1" stop-color="#fff" stop-opacity="0"/></linearGradient><linearGradient id="linear-gradient-2" x1="666.24" y1="233.04" x2="666.24" y2="369.9" xlink:href="#linear-gradient"/><linearGradient id="linear-gradient-3" x1="993.72" y1="233.04" x2="993.72" y2="369.9" xlink:href="#linear-gradient"/><linearGradient id="linear-gradient-4" x1="1354.67" y1="233.04" x2="1354.67" y2="369.9" xlink:href="#linear-gradient"/><linearGradient id="linear-gradient-5" x1="1610.78" y1="233.04" x2="1610.78" y2="369.9" xlink:href="#linear-gradient"/><linearGradient id="linear-gradient-6" x1="1829.33" y1="233.04" x2="1829.33" y2="369.9" xlink:href="#linear-gradient"/></defs><path d="M103.13,354.46L0,4.78h105.86l47.81,215.14h2.73L213.09,4.78h83.32l56.69,215.82h2.73L403.64,4.78h105.86l-103.13,349.68h-90.83l-59.42-195.33h-2.73l-59.42,195.33h-90.83Z" style="fill:url(#linear-gradient);"/><path d="M540.23,354.46V4.78h252.02v76.49h-157.08v60.1h144.11v76.49h-144.11v60.1h156.4v76.49h-251.33Z" style="fill:url(#linear-gradient-2);"/><path d="M973.91,354.46h-134.55V4.78h133.18c35.97,0,67.07,6.97,93.31,20.92,26.24,13.94,46.5,33.98,60.79,60.1,14.28,26.12,21.43,57.4,21.43,93.82s-7.11,67.7-21.34,93.82c-14.23,26.12-34.38,46.16-60.44,60.1-26.07,13.94-56.86,20.91-92.37,20.91ZM934.3,273.87h36.2c17.3,0,32.07-2.79,44.31-8.37,12.23-5.58,21.57-15.2,28-28.86,6.43-13.66,9.65-32.67,9.65-57.03s-3.27-43.37-9.82-57.03c-6.55-13.66-16.11-23.28-28.69-28.86-12.58-5.57-27.98-8.37-46.18-8.37h-33.47v188.5Z" style="fill:url(#linear-gradient-3);"/><path d="M1418.87,120.2c-1.48-6.03-3.82-11.36-7-15.96-3.19-4.61-7.14-8.54-11.87-11.78-4.73-3.25-10.19-5.69-16.39-7.34-6.2-1.65-13.01-2.48-20.4-2.48-15.94,0-29.51,3.82-40.72,11.44-11.21,7.63-19.75,18.61-25.61,32.95-5.86,14.34-8.79,31.65-8.79,51.91s2.79,38.02,8.37,52.59c5.57,14.57,13.89,25.73,24.93,33.47,11.04,7.74,24.76,11.61,41.15,11.61,14.45,0,26.49-2.1,36.11-6.32,9.62-4.21,16.82-10.19,21.6-17.93,4.78-7.74,7.17-16.85,7.17-27.32l16.39,1.71h-79.91v-67.61h155.03v48.49c0,31.87-6.74,59.1-20.23,81.7-13.49,22.6-32.04,39.9-55.67,51.9-23.62,12.01-50.68,18.01-81.19,18.01-34.04,0-63.92-7.23-89.64-21.68-25.73-14.45-45.79-35.06-60.19-61.81-14.4-26.75-21.6-58.57-21.6-95.45,0-28.91,4.41-54.52,13.23-76.83,8.82-22.31,21.09-41.18,36.79-56.6,15.71-15.42,33.87-27.09,54.47-35,20.6-7.91,42.69-11.87,66.25-11.87,20.71,0,39.98,2.93,57.79,8.79,17.81,5.86,33.58,14.17,47.3,24.93,13.71,10.76,24.78,23.48,33.21,38.16,8.42,14.69,13.54,30.79,15.37,48.32h-95.96Z" style="fill:url(#linear-gradient-4);"/><path d="M1658.25,4.78v349.68h-94.93V4.78h94.93Z" style="fill:url(#linear-gradient-5);"/><path d="M1703.32,354.46V4.78h252.02v76.49h-157.08v60.1h144.11v76.49h-144.11v60.1h156.4v76.49h-251.33Z" style="fill:url(#linear-gradient-6);"/><polygon points="0 383.43 88.67 383.43 88.67 613.74 167.55 613.74 167.55 383.43 256.22 383.43 256.22 318.94 0 318.94 0 383.43" style="fill:#fff;"/><path d="M508.77,472.53c9.36-14.49,14.03-32.29,14.03-53.4s-4.56-38.87-13.68-53.84c-9.12-14.97-21.88-26.44-38.29-34.4-16.41-7.96-35.55-11.95-57.43-11.95h-127.25v294.8h80.03v-97.31h27.7l51.76,97.31h86.94l-59.88-109.94c15.27-7.34,27.32-17.74,36.06-31.27ZM366.19,382.85h28.21c9.4,0,17.44,1.27,24.11,3.81,6.67,2.54,11.8,6.48,15.4,11.8,3.6,5.33,5.4,12.21,5.4,20.66s-1.8,15.11-5.4,20.29c-3.6,5.19-8.73,8.95-15.4,11.3-6.67,2.35-14.71,3.53-24.11,3.53h-28.21v-71.4Z" style="fill:#fff;"/><path d="M644.29,318.94l-97.31,294.8h86.37l17.03-56.43h97.21l17.03,56.43h86.37l-97.31-294.8h-109.4ZM668.46,497.43l29.38-97.31h2.3l29.38,97.31h-61.06Z" style="fill:#fff;"/><path d="M974.72,394.37c9.26-6.52,20.61-9.79,34.05-9.79,7.67,0,14.54,1.08,20.58,3.24,6.04,2.16,11.2,5.23,15.47,9.21,4.27,3.98,7.63,8.71,10.08,14.18,2.45,5.47,3.96,11.56,4.53,18.28h81.19c-1.54-18.33-5.9-34.59-13.1-48.8-7.2-14.2-16.7-26.17-28.5-35.92-11.8-9.74-25.53-17.15-41.17-22.24-15.64-5.09-32.77-7.63-51.39-7.63-26.49,0-50.48,5.78-71.97,17.34-21.5,11.56-38.58,28.6-51.25,51.1s-19,50.17-19,82.98,6.21,60.22,18.64,82.77c12.43,22.55,29.37,39.63,50.81,51.25,21.45,11.61,45.7,17.42,72.76,17.42,21.59,0,40.54-3.31,56.86-9.93,16.31-6.62,30.01-15.38,41.1-26.27,11.09-10.89,19.65-22.79,25.7-35.7,6.04-12.9,9.55-25.6,10.51-38.07l-81.19-.58c-.96,6.34-2.81,12.02-5.54,17.06-2.73,5.03-6.26,9.33-10.58,12.88-4.32,3.55-9.41,6.26-15.26,8.13-5.86,1.87-12.48,2.81-19.86,2.81-12.96,0-24.04-3.05-33.25-9.14-9.21-6.09-16.24-15.21-21.09-27.35-4.85-12.14-7.27-27.23-7.27-45.27,0-17.08,2.38-31.71,7.12-43.9,4.75-12.18,11.75-21.54,21.02-28.07Z" style="fill:#fff;"/><polygon points="1442.9 318.94 1349.62 318.94 1260.95 438.13 1256.92 438.13 1256.92 318.94 1176.89 318.94 1176.89 613.74 1256.92 613.74 1256.92 537.74 1283.41 503.19 1349.62 613.74 1445.2 613.74 1343.29 450.22 1442.9 318.94" style="fill:#fff;"/><polygon points="1466.5 613.74 1678.39 613.74 1678.39 549.25 1546.54 549.25 1546.54 498.58 1668.03 498.58 1668.03 434.1 1546.54 434.1 1546.54 383.43 1678.96 383.43 1678.96 318.94 1466.5 318.94 1466.5 613.74" style="fill:#fff;"/><path d="M1878.18,613.74h86.94l-59.88-109.94c15.27-7.34,27.32-17.74,36.06-31.27,9.36-14.49,14.04-32.29,14.04-53.4s-4.56-38.87-13.67-53.84c-9.12-14.97-21.88-26.44-38.29-34.4-16.41-7.96-35.56-11.95-57.44-11.95h-127.25v294.8h80.04v-97.31h27.7l51.76,97.31ZM1798.73,382.85h28.21c9.4,0,17.44,1.27,24.11,3.81,6.67,2.54,11.81,6.48,15.41,11.8,3.6,5.33,5.4,12.21,5.4,20.66s-1.8,15.11-5.4,20.29c-3.6,5.19-8.73,8.95-15.41,11.3-6.67,2.35-14.71,3.53-24.11,3.53h-28.21v-71.4Z" style="fill:#fff;"/></svg>