<svg id="uuid-b585890c-7933-480d-a8a9-93621a9c900c" xmlns="http://www.w3.org/2000/svg" xmlns:xlink="http://www.w3.org/1999/xlink" viewBox="0 0 200 62.87"><defs><linearGradient id="uuid-ce2c17f1-4b27-4f39-89bd-a8f22a07045c" x1="25.93" y1="23.72" x2="25.93" y2="37.65" gradientUnits="userSpaceOnUse"><stop offset="0" stop-color="#f0f"/><stop offset="1" stop-color="#f0f" stop-opacity="0"/></linearGradient><linearGradient id="uuid-c45d0acb-5f91-4f3e-bb81-ec73e52ed35b" x1="67.81" y1="23.72" x2="67.81" y2="37.65" xlink:href="#uuid-ce2c17f1-4b27-4f39-89bd-a8f22a07045c"/><linearGradient id="uuid-ccb9663f-7566-45b1-89c7-c85d60619d51" x1="101.14" y1="23.72" x2="101.14" y2="37.65" xlink:href="#uuid-ce2c17f1-4b27-4f39-89bd-a8f22a07045c"/><linearGradient id="uuid-c73e7cdb-4b0d-4cc7-9e52-64332b617d0b" x1="137.87" y1="23.72" x2="137.87" y2="37.65" xlink:href="#uuid-ce2c17f1-4b27-4f39-89bd-a8f22a07045c"/><linearGradient id="uuid-a92c72dd-babf-4509-9cae-82cebb2043e0" x1="163.94" y1="23.72" x2="163.94" y2="37.65" xlink:href="#uuid-ce2c17f1-4b27-4f39-89bd-a8f22a07045c"/><linearGradient id="uuid-730818b4-a8c6-4b53-8d28-86d85f021937" x1="186.18" y1="23.72" x2="186.18" y2="37.65" xlink:href="#uuid-ce2c17f1-4b27-4f39-89bd-a8f22a07045c"/></defs><path d="M10.5,36.08L0,.49h10.77l4.87,21.9h.28L21.69.49h8.48l5.77,21.97h.28L41.08.49h10.77l-10.5,35.59h-9.24l-6.05-19.88h-.28l-6.05,19.88h-9.24Z" style="fill:url(#uuid-ce2c17f1-4b27-4f39-89bd-a8f22a07045c); stroke-width:0px;"/><path d="M54.98,36.08V.49h25.65v7.79h-15.99v6.12h14.67v7.79h-14.67v6.12h15.92v7.79h-25.58Z" style="fill:url(#uuid-c45d0acb-5f91-4f3e-bb81-ec73e52ed35b); stroke-width:0px;"/><path d="M99.12,36.08h-13.69V.49h13.55c3.66,0,6.83.71,9.5,2.13s4.73,3.46,6.19,6.12c1.45,2.66,2.18,5.84,2.18,9.55s-.72,6.89-2.17,9.55-3.5,4.7-6.15,6.12c-2.65,1.42-5.79,2.13-9.4,2.13ZM95.09,27.87h3.68c1.76,0,3.26-.28,4.51-.85,1.25-.57,2.2-1.55,2.85-2.94.65-1.39.98-3.32.98-5.8s-.33-4.41-1-5.8-1.64-2.37-2.92-2.94c-1.28-.57-2.85-.85-4.7-.85h-3.41v19.18Z" style="fill:url(#uuid-ccb9663f-7566-45b1-89c7-c85d60619d51); stroke-width:0px;"/><path d="M144.41,12.23c-.15-.61-.39-1.16-.71-1.62-.32-.47-.73-.87-1.21-1.2-.48-.33-1.04-.58-1.67-.75-.63-.17-1.32-.25-2.08-.25-1.62,0-3,.39-4.14,1.16-1.14.78-2.01,1.89-2.61,3.35-.6,1.46-.89,3.22-.89,5.28s.28,3.87.85,5.35c.57,1.48,1.41,2.62,2.54,3.41,1.12.79,2.52,1.18,4.19,1.18,1.47,0,2.7-.21,3.68-.64.98-.43,1.71-1.04,2.2-1.82.49-.79.73-1.71.73-2.78l1.67.17h-8.13v-6.88h15.78v4.94c0,3.24-.69,6.02-2.06,8.32-1.37,2.3-3.26,4.06-5.67,5.28-2.4,1.22-5.16,1.83-8.26,1.83-3.46,0-6.51-.74-9.12-2.21-2.62-1.47-4.66-3.57-6.13-6.29s-2.2-5.96-2.2-9.71c0-2.94.45-5.55,1.35-7.82.9-2.27,2.15-4.19,3.74-5.76,1.6-1.57,3.45-2.76,5.54-3.56,2.1-.8,4.34-1.21,6.74-1.21,2.11,0,4.07.3,5.88.89s3.42,1.44,4.81,2.54c1.4,1.09,2.52,2.39,3.38,3.88.86,1.49,1.38,3.13,1.56,4.92h-9.77Z" style="fill:url(#uuid-c73e7cdb-4b0d-4cc7-9e52-64332b617d0b); stroke-width:0px;"/><path d="M168.77.49v35.59h-9.66V.49h9.66Z" style="fill:url(#uuid-a92c72dd-babf-4509-9cae-82cebb2043e0); stroke-width:0px;"/><path d="M173.35,36.08V.49h25.65v7.79h-15.99v6.12h14.67v7.79h-14.67v6.12h15.92v7.79h-25.58Z" style="fill:url(#uuid-730818b4-a8c6-4b53-8d28-86d85f021937); stroke-width:0px;"/><polygon points="0 39.02 9.02 39.02 9.02 62.46 17.05 62.46 17.05 39.02 26.08 39.02 26.08 32.46 0 32.46 0 39.02" style="fill:#dfff00; stroke-width:0px;"/><path d="M51.78,48.09c.95-1.47,1.43-3.29,1.43-5.43s-.46-3.96-1.39-5.48c-.93-1.52-2.23-2.69-3.9-3.5-1.67-.81-3.62-1.22-5.85-1.22h-12.95v30h8.15v-9.9h2.82l5.27,9.9h8.85l-6.09-11.19c1.55-.75,2.78-1.81,3.67-3.18ZM37.27,38.96h2.87c.96,0,1.77.13,2.45.39.68.26,1.2.66,1.57,1.2.37.54.55,1.24.55,2.1s-.18,1.54-.55,2.07c-.37.53-.89.91-1.57,1.15-.68.24-1.5.36-2.45.36h-2.87v-7.27Z" style="fill:#dfff00; stroke-width:0px;"/><path d="M65.57,32.46l-9.9,30h8.79l1.73-5.74h9.89l1.73,5.74h8.79l-9.9-30h-11.13ZM68.03,50.63l2.99-9.9h.23l2.99,9.9h-6.21Z" style="fill:#dfff00; stroke-width:0px;"/><path d="M99.2,40.14c.94-.66,2.1-1,3.46-1,.78,0,1.48.11,2.09.33.62.22,1.14.53,1.57.94.43.41.78.89,1.03,1.44s.4,1.18.46,1.86h8.26c-.16-1.87-.6-3.52-1.33-4.97-.73-1.45-1.7-2.66-2.9-3.66-1.2-.99-2.6-1.75-4.19-2.26-1.59-.52-3.34-.78-5.23-.78-2.7,0-5.14.59-7.32,1.77-2.19,1.18-3.93,2.91-5.22,5.2s-1.93,5.11-1.93,8.45.63,6.13,1.9,8.42c1.26,2.3,2.99,4.03,5.17,5.22s4.65,1.77,7.41,1.77c2.2,0,4.13-.34,5.79-1.01,1.66-.67,3.05-1.56,4.18-2.67,1.13-1.11,2-2.32,2.62-3.63.62-1.31.97-2.61,1.07-3.87l-8.26-.06c-.1.64-.29,1.22-.56,1.74-.28.51-.64.95-1.08,1.31-.44.36-.96.64-1.55.83-.6.19-1.27.29-2.02.29-1.32,0-2.45-.31-3.38-.93-.94-.62-1.65-1.55-2.15-2.78s-.74-2.77-.74-4.61c0-1.74.24-3.23.73-4.47.48-1.24,1.2-2.19,2.14-2.86Z" style="fill:#dfff00; stroke-width:0px;"/><polygon points="146.85 32.46 137.36 32.46 128.33 44.59 127.92 44.59 127.92 32.46 119.78 32.46 119.78 62.46 127.92 62.46 127.92 54.73 130.62 51.21 137.36 62.46 147.09 62.46 136.71 45.82 146.85 32.46" style="fill:#dfff00; stroke-width:0px;"/><polygon points="149.25 62.46 170.82 62.46 170.82 55.9 157.4 55.9 157.4 50.74 169.76 50.74 169.76 44.18 157.4 44.18 157.4 39.02 170.88 39.02 170.88 32.46 149.25 32.46 149.25 62.46" style="fill:#dfff00; stroke-width:0px;"/><path d="M191.15,62.46h8.85l-6.09-11.19c1.55-.75,2.78-1.81,3.67-3.18.95-1.47,1.43-3.29,1.43-5.43s-.46-3.96-1.39-5.48c-.93-1.52-2.23-2.69-3.9-3.5-1.67-.81-3.62-1.22-5.85-1.22h-12.95v30h8.15v-9.9h2.82l5.27,9.9ZM183.06,38.96h2.87c.96,0,1.77.13,2.45.39.68.26,1.2.66,1.57,1.2.37.54.55,1.24.55,2.1s-.18,1.54-.55,2.07c-.37.53-.89.91-1.57,1.15-.68.24-1.5.36-2.45.36h-2.87v-7.27Z" style="fill:#dfff00; stroke-width:0px;"/></svg>